<?xml version="1.0" standalone="no"?>
<!DOCTYPE svg PUBLIC "-//W3C//DTD SVG 1.1//EN" "http://www.w3.org/Graphics/SVG/1.1/DTD/svg11.dtd">
<svg width="100%" height="100%" viewBox="0 0 100 125" version="1.1" xmlns="http://www.w3.org/2000/svg" xmlns:xlink="http://www.w3.org/1999/xlink" xml:space="preserve" style="fill-rule:evenodd;clip-rule:evenodd;stroke-linejoin:round;stroke-miterlimit:1.41421;">
    <g transform="matrix(1,0,0,1,-1.31273,14.886)">
        <g>
            <path d="M63.573,21.722C58.303,21.722 53.38,24.014 49.999,27.948C46.615,24.017 41.679,21.722 36.426,21.722C26.556,21.722 18.528,29.751 18.528,39.622C18.528,44.311 20.325,48.743 23.593,52.101L45.999,76.495C47.056,77.645 48.476,78.278 49.999,78.278C51.524,78.278 52.943,77.645 54,76.495L76.395,52.112C79.67,48.753 81.473,44.317 81.473,39.623C81.475,29.751 73.441,21.722 63.573,21.722ZM73.975,49.781C73.961,49.792 73.951,49.806 73.935,49.818L51.526,74.22C51.112,74.67 50.572,74.918 50.001,74.918C49.43,74.918 48.89,74.67 48.476,74.22L26.089,49.851C26.067,49.828 26.049,49.804 26.027,49.783C23.356,47.051 21.888,43.442 21.888,39.622C21.888,31.604 28.409,25.082 36.425,25.082C41.255,25.082 45.758,27.471 48.47,31.474L48.575,31.641C48.88,32.123 49.409,32.417 49.983,32.422C50.569,32.438 51.087,32.142 51.4,31.663C54.102,27.542 58.651,25.082 63.572,25.082C71.59,25.082 78.111,31.605 78.111,39.622C78.112,43.441 76.644,47.05 73.975,49.781Z" style="fill:black;fill-rule:nonzero;"/>
        </g>
    </g>
</svg>
