<svg xmlns="http://www.w3.org/2000/svg" xmlns:xlink="http://www.w3.org/1999/xlink" version="1.1" x="0px" y="0px" viewBox="0 0 100 125" enable-background="new 0 0 100 100" xml:space="preserve"><g><path d="M56.279,73.884h-12.96c-1.378,0-2.5-1.121-2.5-2.5V44.57H27.275c-0.831,0-1.529-0.394-1.869-1.052   s-0.254-1.456,0.229-2.133l22.363-31.323c0.437-0.613,1.094-0.964,1.802-0.964s1.365,0.352,1.803,0.965l22.361,31.322   c0.483,0.677,0.568,1.475,0.229,2.133c-0.34,0.659-1.038,1.052-1.869,1.052H58.779v26.813   C58.779,72.763,57.658,73.884,56.279,73.884z M43.819,70.884h11.96V44.07c0-1.378,1.121-2.5,2.5-2.5H70.41L49.8,12.702   L29.189,41.57h12.13c1.378,0,2.5,1.122,2.5,2.5V70.884z"/></g><g><path d="M90.25,91.38H9.75c-1.378,0-2.5-1.121-2.5-2.5V74.554c0-1.379,1.122-2.5,2.5-2.5h6.534c1.378,0,2.5,1.121,2.5,2.5v4.431   h62.432v-4.431c0-1.379,1.121-2.5,2.5-2.5h6.534c1.379,0,2.5,1.121,2.5,2.5V88.88C92.75,90.259,91.629,91.38,90.25,91.38z    M10.25,88.38h79.5V75.054h-5.534v4.431c0,1.379-1.121,2.5-2.5,2.5H18.284c-1.378,0-2.5-1.121-2.5-2.5v-4.431H10.25V88.38z"/></g><text x="0" y="115" fill="#000000" font-size="5px" font-weight="bold" font-family="'Helvetica Neue', Helvetica, Arial-Unicode, Arial, Sans-serif">Created by Agarunov Oktay-Abraham</text><text x="0" y="120" fill="#000000" font-size="5px" font-weight="bold" font-family="'Helvetica Neue', Helvetica, Arial-Unicode, Arial, Sans-serif">from the Noun Project</text></svg>