<svg xmlns="http://www.w3.org/2000/svg" xmlns:xlink="http://www.w3.org/1999/xlink" version="1.1" x="0px" y="0px" viewBox="0 0 100 125" enable-background="new 0 0 100 100" xml:space="preserve"><g><path fill="#000000" d="M63.573,21.722c-5.27,0-10.193,2.292-13.574,6.226c-3.384-3.931-8.32-6.226-13.573-6.226   c-9.87,0-17.898,8.029-17.898,17.9c0,4.689,1.797,9.121,5.065,12.479l22.406,24.394c1.057,1.15,2.477,1.783,4,1.783   c1.525,0,2.944-0.633,4.001-1.783l22.395-24.383c3.275-3.359,5.078-7.795,5.078-12.489C81.475,29.751,73.441,21.722,63.573,21.722z    M73.975,49.781c-0.014,0.011-0.024,0.025-0.04,0.037L51.526,74.22c-0.414,0.45-0.954,0.698-1.525,0.698s-1.111-0.248-1.525-0.698   L26.089,49.851c-0.022-0.023-0.04-0.047-0.062-0.068c-2.671-2.732-4.139-6.341-4.139-10.161c0-8.018,6.521-14.54,14.537-14.54   c4.83,0,9.333,2.389,12.045,6.392l0.105,0.167c0.305,0.482,0.834,0.776,1.408,0.781c0.586,0.016,1.104-0.28,1.417-0.759   c2.702-4.121,7.251-6.581,12.172-6.581c8.018,0,14.539,6.523,14.539,14.54C78.112,43.441,76.644,47.05,73.975,49.781z"/><path fill="#000000" d="M36.969,29.068c-6.118,0-11.096,4.978-11.096,11.097c0,0.927,0.753,1.68,1.683,1.68   c0.924,0,1.678-0.753,1.678-1.68c0-4.267,3.469-7.734,7.734-7.734c0.928,0,1.682-0.753,1.682-1.683   C38.651,29.821,37.896,29.068,36.969,29.068z"/></g><text x="0" y="115" fill="#000000" font-size="5px" font-weight="bold" font-family="'Helvetica Neue', Helvetica, Arial-Unicode, Arial, Sans-serif">Created by Egidio Filippetti</text><text x="0" y="120" fill="#000000" font-size="5px" font-weight="bold" font-family="'Helvetica Neue', Helvetica, Arial-Unicode, Arial, Sans-serif">from the Noun Project</text></svg>