<?xml version="1.0" encoding="UTF-8" standalone="no"?>
<!-- Created with Inkscape (http://www.inkscape.org/) -->

<svg
   xmlns:dc="http://purl.org/dc/elements/1.1/"
   xmlns:cc="http://creativecommons.org/ns#"
   xmlns:rdf="http://www.w3.org/1999/02/22-rdf-syntax-ns#"
   xmlns:svg="http://www.w3.org/2000/svg"
   xmlns="http://www.w3.org/2000/svg"
   xmlns:sodipodi="http://sodipodi.sourceforge.net/DTD/sodipodi-0.dtd"
   xmlns:inkscape="http://www.inkscape.org/namespaces/inkscape"
   id="svg4146"
   version="1.1"
   inkscape:version="0.91 r13725"
   width="1550"
   height="1550"
   viewBox="0 0 1550 1550"
   sodipodi:docname="MasterLogo.svg">
  <metadata
     id="metadata4152">
    <rdf:RDF>
      <cc:Work
         rdf:about="">
        <dc:format>image/svg+xml</dc:format>
        <dc:type
           rdf:resource="http://purl.org/dc/dcmitype/StillImage" />
        <dc:title></dc:title>
      </cc:Work>
    </rdf:RDF>
  </metadata>
  <defs
     id="defs4150" />
  <sodipodi:namedview
     pagecolor="#ffffff"
     bordercolor="#666666"
     borderopacity="1"
     objecttolerance="10"
     gridtolerance="10"
     guidetolerance="10"
     inkscape:pageopacity="0"
     inkscape:pageshadow="2"
     inkscape:window-width="1920"
     inkscape:window-height="1017"
     id="namedview4148"
     showgrid="false"
     showguides="true"
     inkscape:guide-bbox="true"
     inkscape:snap-to-guides="true"
     inkscape:zoom="0.70710678"
     inkscape:cx="508.52342"
     inkscape:cy="816.69177"
     inkscape:window-x="-8"
     inkscape:window-y="-8"
     inkscape:window-maximized="1"
     inkscape:current-layer="layer2">
    <sodipodi:guide
       position="811.05148,863.37738"
       orientation="0,1"
       id="guide4729" />
    <sodipodi:guide
       position="794.08092,788.42406"
       orientation="1,0"
       id="guide4731" />
    <sodipodi:guide
       position="701.44993,819.18321"
       orientation="1,0"
       id="guide4737" />
    <sodipodi:guide
       position="887,863.37738"
       orientation="1,0"
       id="guide4739" />
    <sodipodi:guide
       position="946.5,837.75"
       orientation="1,0"
       id="guide4751" />
    <sodipodi:guide
       position="923.75,822.75"
       orientation="1,0"
       id="guide4753" />
    <sodipodi:guide
       position="565.5,894"
       orientation="0,1"
       id="guide4762" />
    <sodipodi:guide
       position="867,982"
       orientation="0,1"
       id="guide4767" />
    <sodipodi:guide
       position="806.63206,1024.2442"
       orientation="0,1"
       id="guide4779" />
    <sodipodi:guide
       position="688.72201,751.65451"
       orientation="0,1"
       id="guide4784" />
    <sodipodi:guide
       position="868.32713,771.4535"
       orientation="0,1"
       id="guide4790" />
  </sodipodi:namedview>
  <g
     inkscape:groupmode="layer"
     id="layer2"
     inkscape:label="Layer 2"
     style="display:inline">
    <path
       style="opacity:1;fill:#8f6700;fill-opacity:1;stroke:none;stroke-width:1.14049447;stroke-miterlimit:4;stroke-dasharray:none;stroke-opacity:1"
       d="m 920.45898,393.32227 a 21.749998,21.749998 0 0 0 -21.75,21.75 21.749998,21.749998 0 0 0 5.7793,14.72656 l -53.64844,94.52539 A 232.17975,167.55475 0 0 0 794.25,519.07031 232.17975,167.55475 0 0 0 738.24414,524.2793 L 684.7207,429.97461 A 21.749998,21.749998 0 0 0 690.5,415.25 21.749998,21.749998 0 0 0 668.75,393.5 21.749998,21.749998 0 0 0 647,415.25 21.749998,21.749998 0 0 0 668.75,437 a 21.749998,21.749998 0 0 0 3.74805,-0.32812 l 51.32031,90.42382 A 232.17975,167.55475 0 0 0 631.23828,567.50586 55.749996,55.749996 0 0 0 592.75,552 55.749996,55.749996 0 0 0 537,607.75 55.749996,55.749996 0 0 0 565.92578,656.61719 232.17975,167.55475 0 0 0 562.07031,686.625 232.17975,167.55475 0 0 0 794.25,854.17969 232.17975,167.55475 0 0 0 924,825.50977 l 0,-110.74219 a 59.762337,59.762337 0 0 1 -37.05078,12.8789 59.762337,59.762337 0 0 1 -59.76172,-59.76171 59.762337,59.762337 0 0 1 59.76172,-59.76368 59.762337,59.762337 0 0 1 59.76367,59.76368 59.762337,59.762337 0 0 1 -0.006,0.11523 l 0.043,0 0,144.81055 A 232.17975,167.55475 0 0 0 1026.4297,686.625 232.17975,167.55475 0 0 0 1022.4258,656.31836 55.749996,55.749996 0 0 0 1050.9395,607.75 55.749996,55.749996 0 0 0 995.18945,552 55.749996,55.749996 0 0 0 956.99414,567.18945 232.17975,167.55475 0 0 0 865.17383,527.29883 l 51.53711,-90.80469 a 21.749998,21.749998 0 0 0 3.74804,0.32813 21.749998,21.749998 0 0 0 21.75,-21.75 21.749998,21.749998 0 0 0 -21.75,-21.75 z M 701.44922,631.12109 a 36.762337,36.762337 0 0 1 36.76367,36.76368 36.762337,36.762337 0 0 1 -36.76367,36.76171 36.762337,36.762337 0 0 1 -36.76172,-36.76171 36.762337,36.762337 0 0 1 36.76172,-36.76368 z m 185.5,0 a 36.762337,36.762337 0 0 0 -36.76172,36.76368 36.762337,36.762337 0 0 0 36.76172,36.76171 36.762337,36.762337 0 0 0 36.76367,-36.76171 36.762337,36.762337 0 0 0 -36.76367,-36.76368 z M 705.93945,749.6582 a 9.0075827,9.0075827 0 0 1 7.14844,3.53516 87.830742,41.926407 0 0 0 80.38086,25.83984 l 1.15234,0 a 87.830742,41.926407 0 0 0 80.23243,-25.83984 9.0075827,9.0075827 0 0 1 7.14843,-3.53516 9.0075827,9.0075827 0 0 1 9.00782,9.00586 9.0075827,9.0075827 0 0 1 -1.71289,5.26563 l 0.0664,0.0566 a 97.580742,42.426407 0 0 1 -94.67969,33.84179 l 0,0.0176 -1.41601,0 0,-0.0117 a 97.580742,42.426407 0 0 1 -94.68946,-33.84765 l 0.0664,-0.0566 a 9.0075827,9.0075827 0 0 1 -1.71289,-5.26563 9.0075827,9.0075827 0 0 1 9.00781,-9.00586 z m 10.58594,130.97657 0,56.99023 0,56.98828 49.36719,-28.49414 28.16797,-16.25781 28.16797,16.25781 49.36718,28.49414 0,-56.98828 0,-56.99023 -49.36718,28.49414 -28.16797,16.25976 -28.16797,-16.25976 -49.36719,-28.49414 z"
       id="path4725"
       inkscape:connector-curvature="0" />
  </g>
</svg>
